<?xml version="1.0" encoding="UTF-8" standalone="no"?>
<!-- Created with Inkscape (http://www.inkscape.org/) -->

<svg
   width="793.70099"
   height="915.52002"
   viewBox="0 0 210.00005 242.23202"
   version="1.1"
   id="svg1"
   inkscape:version="1.4 (86a8ad7, 2024-10-11)"
   sodipodi:docname="bombillo-encendido.svg"
   xmlns:inkscape="http://www.inkscape.org/namespaces/inkscape"
   xmlns:sodipodi="http://sodipodi.sourceforge.net/DTD/sodipodi-0.dtd"
   xmlns="http://www.w3.org/2000/svg"
   xmlns:svg="http://www.w3.org/2000/svg">
  <sodipodi:namedview
     id="namedview1"
     pagecolor="#282828"
     bordercolor="#111111"
     borderopacity="1"
     inkscape:showpageshadow="0"
     inkscape:pageopacity="0"
     inkscape:pagecheckerboard="1"
     inkscape:deskcolor="#3a3a3a"
     inkscape:document-units="mm"
     inkscape:zoom="0.52827581"
     inkscape:cx="419.28855"
     inkscape:cy="443.89691"
     inkscape:window-width="1440"
     inkscape:window-height="837"
     inkscape:window-x="-8"
     inkscape:window-y="-8"
     inkscape:window-maximized="1"
     inkscape:current-layer="layer4"
     showguides="true" />
  <defs
     id="defs1">
    <inkscape:path-effect
       effect="fillet_chamfer"
       id="path-effect2"
       is_visible="true"
       lpeversion="1"
       nodesatellites_param="F,0,0,1,0,0,0,1 @ F,0,0,1,0,0,0,1"
       radius="0"
       unit="px"
       method="auto"
       mode="F"
       chamfer_steps="1"
       flexible="false"
       use_knot_distance="true"
       apply_no_radius="true"
       apply_with_radius="true"
       only_selected="false"
       hide_knots="false" />
    <filter
       inkscape:collect="always"
       style="color-interpolation-filters:sRGB"
       id="filter33"
       x="-0.024153022"
       y="-0.015064101"
       width="1.0484289"
       height="1.0301239">
      <feGaussianBlur
         inkscape:collect="always"
         stdDeviation="0.48353498"
         id="feGaussianBlur33" />
    </filter>
    <filter
       inkscape:collect="always"
       style="color-interpolation-filters:sRGB"
       id="filter34"
       x="-0.26730087"
       y="-0.24181494"
       width="1.5346017"
       height="1.4836299">
      <feGaussianBlur
         inkscape:collect="always"
         stdDeviation="19.199213"
         id="feGaussianBlur34" />
    </filter>
  </defs>
  <g
     inkscape:groupmode="layer"
     id="layer3"
     inkscape:label="bombillo">
    <path
       id="path34"
       style="fill:#f7d96e;fill-opacity:1;stroke:none;stroke-width:1.86013;stroke-linecap:round;stroke-linejoin:round;stroke-dasharray:none;stroke-opacity:1;filter:url(#filter34);opacity:0.72"
       d="m 104.99962,20.458759 c -47.602222,1.98e-4 -86.191254,29.217456 -86.191048,65.258588 0.07137,23.077643 20.129259,42.989453 31.806164,56.105493 18.057952,20.28353 0.816402,69.07997 23.472681,69.16145 22.656281,0.0814 49.210893,-0.0336 65.942433,-0.31179 16.73155,-0.27812 3.81612,-48.40621 22.64907,-68.84901 26.73064,-29.01553 28.44138,-33.02813 28.5126,-56.106143 2.2e-4,-36.041393 -38.58934,-65.258738 -86.1919,-65.258588 z"
       sodipodi:nodetypes="ccszzscc"
       inkscape:label="luz" />
    <path
       style="fill:none;fill-opacity:1;stroke:#f8b93a;stroke-width:4.383629;stroke-linecap:round;stroke-linejoin:round;stroke-dasharray:none;stroke-opacity:1"
       d="m 94.203794,210.52756 c 0,0 -5.000288,-68.48153 -12.395237,-100.57849 -2.839176,-12.32316 -16.588919,-20.37941 -12.749384,0.35415 1.770746,9.56204 19.489325,28.8663 27.446591,0.35415 8.776766,-31.44861 -18.415778,-15.051392 -11.332787,-0.53123 6.805257,13.95078 17.353333,28.50905 27.977823,0.70831 12.43418,-32.536166 -15.051358,-17.707524 -12.04109,-0.17708 2.5351,14.76323 18.06163,22.84264 25.49877,-0.17707 8.77587,-27.163466 -13.28061,-17.530452 -8.4996,-0.17708 4.90774,17.81327 22.13436,20.18653 24.25925,0.7083 3.23278,-29.633888 -10.52074,-5.7686 -11.68693,-0.53123 0,0 -17.35333,46.92483 -15.93673,99.69312"
       id="path33"
       sodipodi:nodetypes="cssssssssscc"
       inkscape:label="alambre" />
    <path
       style="fill:none;fill-opacity:1;stroke:#f8f883;stroke-width:1.26153;stroke-linecap:round;stroke-linejoin:round;stroke-dasharray:none;stroke-opacity:1;filter:url(#filter33)"
       d="m 94.203794,210.52756 c 0,0 -5.000288,-68.48153 -12.395237,-100.57849 -2.839176,-12.32316 -16.588919,-20.37941 -12.749384,0.35415 1.770746,9.56204 19.489325,28.8663 27.446591,0.35415 8.776766,-31.44861 -18.415778,-15.051392 -11.332787,-0.53123 6.805257,13.95078 17.353333,28.50905 27.977823,0.70831 12.43418,-32.536166 -15.051358,-17.707524 -12.04109,-0.17708 2.5351,14.76323 18.06163,22.84264 25.49877,-0.17707 8.77587,-27.163466 -13.28061,-17.530452 -8.4996,-0.17708 4.90774,17.81327 22.13436,20.18653 24.25925,0.7083 3.23278,-29.633888 -10.52074,-5.7686 -11.68693,-0.53123 0,0 -17.35333,46.92483 -15.93673,99.69312"
       id="path13"
       sodipodi:nodetypes="cssssssssscc"
       inkscape:label="alambre" />
    <path
       id="rect1"
       style="fill:none;fill-opacity:1;stroke:#f5d466;stroke-width:1.3;stroke-linecap:round;stroke-linejoin:round;stroke-dasharray:none;stroke-opacity:1"
       d="m 104.99979,58.242878 c -28.947507,1.6e-4 -52.413978,23.466912 -52.413853,52.414472 0.0434,18.53553 12.240853,34.52832 19.341725,45.06288 10.981265,16.29135 0.496464,55.48373 14.27403,55.54918 13.777566,0.0654 29.925758,-0.027 40.100418,-0.25043 10.17466,-0.22338 2.32062,-38.87896 13.77318,-55.29823 16.25523,-23.30473 17.29555,-26.52758 17.33887,-45.0634 1.3e-4,-28.94777 -23.46666,-52.414592 -52.41437,-52.414472 z"
       sodipodi:nodetypes="ccszzscc"
       inkscape:label="cristal" />
  </g>
  <g
     inkscape:label="rosca"
     inkscape:groupmode="layer"
     id="layer1"
     style="display:inline">
    <rect
       style="fill:#4a4821;fill-opacity:1;stroke:none;stroke-width:1.38148;stroke-linecap:round;stroke-linejoin:round;stroke-dasharray:none;stroke-opacity:1"
       id="rect2"
       width="44.575039"
       height="28.673271"
       x="83.640808"
       y="210.57935"
       ry="4.3308587" />
    <rect
       style="fill:#72653d;fill-opacity:1;stroke:none;stroke-width:1.17149;stroke-linecap:round;stroke-linejoin:round;stroke-dasharray:none;stroke-opacity:1"
       id="rect9"
       width="32.053959"
       height="28.673271"
       x="88.524033"
       y="210.57935"
       ry="4.3308587" />
    <path
       style="fill:none;fill-opacity:1;stroke:#4a4821;stroke-width:3.77507;stroke-linecap:round;stroke-linejoin:round;stroke-dasharray:none;stroke-opacity:1"
       d="m 127.47082,215.80505 c 0,0 -8.24901,5.27256 -43.084975,4.2695"
       id="path5"
       sodipodi:nodetypes="cc" />
    <path
       style="fill:none;fill-opacity:1;stroke:#4a4821;stroke-width:3.77507;stroke-linecap:round;stroke-linejoin:round;stroke-dasharray:none;stroke-opacity:1"
       d="m 127.47082,220.56758 c 0,0 -8.24901,5.27256 -43.084975,4.2695"
       id="path6"
       sodipodi:nodetypes="cc" />
    <path
       style="fill:none;fill-opacity:1;stroke:#4a4821;stroke-width:3.77507;stroke-linecap:round;stroke-linejoin:round;stroke-dasharray:none;stroke-opacity:1"
       d="m 127.47082,225.33011 c 0,0 -8.24901,5.27256 -43.084975,4.2695"
       id="path7"
       sodipodi:nodetypes="cc" />
    <path
       style="fill:none;fill-opacity:1;stroke:#4a4821;stroke-width:3.77507;stroke-linecap:round;stroke-linejoin:round;stroke-dasharray:none;stroke-opacity:1"
       d="m 127.47082,230.62181 c 0,0 -8.24901,5.27256 -43.084975,4.2695"
       id="path8"
       sodipodi:nodetypes="cc" />
    <path
       style="opacity:1;fill:#72653d;fill-opacity:1;stroke:#ffe957;stroke-width:1.52612096;stroke-linecap:round;stroke-linejoin:round;stroke-dasharray:none;stroke-opacity:1"
       d="m 93.761075,220.01606 c 0,0 15.671165,-0.61976 21.160495,-1.50513"
       id="path35"
       sodipodi:nodetypes="cc" />
    <path
       style="opacity:1;fill:#72653d;fill-opacity:1;stroke:#ffe957;stroke-width:1.52612;stroke-linecap:round;stroke-linejoin:round;stroke-dasharray:none;stroke-opacity:1"
       d="m 93.761075,224.77859 c 0,0 15.671165,-0.61976 21.160495,-1.50513"
       id="path36"
       sodipodi:nodetypes="cc" />
    <path
       style="opacity:1;fill:#72653d;fill-opacity:1;stroke:#ffe957;stroke-width:1.52612;stroke-linecap:round;stroke-linejoin:round;stroke-dasharray:none;stroke-opacity:1"
       d="m 93.761075,229.54112 c 0,0 15.671165,-0.61976 21.160495,-1.50513"
       id="path37"
       sodipodi:nodetypes="cc" />
  </g>
  <g
     inkscape:groupmode="layer"
     id="layer4"
     inkscape:label="socrates"
     style="display:inline">
    <rect
       style="opacity:1;fill:#232323;fill-opacity:1;stroke:none;stroke-width:5.96716;stroke-linecap:round;stroke-linejoin:round;stroke-dasharray:none;stroke-opacity:1"
       id="rect31"
       width="57.508499"
       height="15.224112"
       x="76.245758"
       y="225.39108"
       ry="2.7873869" />
    <rect
       style="opacity:1;fill:#303030;fill-opacity:1;stroke:none;stroke-width:4.98623;stroke-linecap:round;stroke-linejoin:round;stroke-dasharray:none;stroke-opacity:1"
       id="rect32"
       width="40.15517"
       height="15.224112"
       x="83.682899"
       y="225.39108"
       ry="2.7873869" />
  </g>
</svg>
