<?xml version="1.0" encoding="UTF-8" standalone="no"?>
<!-- Created with Inkscape (http://www.inkscape.org/) -->

<svg
   width="120"
   height="120"
   viewBox="0 0 120 120"
   version="1.1"
   id="svg1"
   sodipodi:docname="engranaje-grande.svg"
   inkscape:version="1.4 (86a8ad7, 2024-10-11)"
   xmlns:inkscape="http://www.inkscape.org/namespaces/inkscape"
   xmlns:sodipodi="http://sodipodi.sourceforge.net/DTD/sodipodi-0.dtd"
   xmlns="http://www.w3.org/2000/svg"
   xmlns:svg="http://www.w3.org/2000/svg">
  <sodipodi:namedview
     id="namedview1"
     pagecolor="#ffffff"
     bordercolor="#111111"
     borderopacity="1"
     inkscape:showpageshadow="0"
     inkscape:pageopacity="0"
     inkscape:pagecheckerboard="1"
     inkscape:deskcolor="#d1d1d1"
     inkscape:zoom="2.4708333"
     inkscape:cx="61.315346"
     inkscape:cy="64.148398"
     inkscape:window-width="1440"
     inkscape:window-height="837"
     inkscape:window-x="-8"
     inkscape:window-y="-8"
     inkscape:window-maximized="1"
     inkscape:current-layer="svg1"
     showguides="true" />
  <defs
     id="defs1" />
  <path
     id="path30-5"
     style="display:none;fill:none;stroke:#b07227;stroke-width:5.87529;stroke-linecap:round;stroke-linejoin:round;stroke-opacity:1"
     d="M 71.388714,60.365231 C 71.187004,66.655044 65.924582,71.590423 59.634772,71.388712 53.344958,71.187 48.409579,65.92458 48.611291,59.634767 c 0.201713,-6.289812 5.464131,-11.225193 11.753946,-11.02348 6.28981,0.201711 11.225191,5.464133 11.023477,11.753944 z M 111.56743,61.65375 C 110.65409,90.133661 86.826159,112.48078 58.346251,111.56743 29.866344,110.65408 7.51923,86.826154 8.432571,58.346247 9.3459121,29.866341 33.173847,7.5192258 61.653755,8.4325679 90.133661,9.345909 112.48078,33.173842 111.56743,61.65375 Z m -39.181927,-3.712755 -0.755433,-2.529494 35.36783,-10.56262 0.75544,2.529495 z m -6.514307,13.135064 2.181077,-1.487255 20.79504,30.496196 -2.181077,1.48726 z m -35.09342,28.738556 -2.087032,-1.616583 22.603347,-29.181175 2.087029,1.616582 z m 29.482546,-89.111725 2.638536,0.08462 -1.183129,36.892446 -2.638535,-0.08462 0.633744,-19.761499 z m -47.119354,33.681923 0.910245,-2.477999 34.647805,12.727214 -0.910245,2.477998 z" />
  <g
     inkscape:groupmode="layer"
     id="layer2"
     inkscape:label="Engranaje grande"
     style="display:inline">
    <g
       inkscape:groupmode="layer"
       id="layer3"
       inkscape:label="Radios"
       style="display:inline">
      <rect
         style="display:inline;opacity:1;fill:#b07227;fill-opacity:1;fill-rule:nonzero;stroke:none;stroke-width:7.8681;stroke-linecap:round;stroke-linejoin:round;stroke-dasharray:none;stroke-opacity:1"
         id="rect23"
         width="4.0065417"
         height="40.078186"
         x="-85.96048"
         y="-61.133808"
         ry="0"
         transform="matrix(-0.79082924,-0.61203686,0.61189693,-0.79093751,0,0)" />
      <rect
         style="display:inline;opacity:1;fill:#b07227;fill-opacity:1;fill-rule:nonzero;stroke:none;stroke-width:7.8681;stroke-linecap:round;stroke-linejoin:round;stroke-dasharray:none;stroke-opacity:1"
         id="rect24"
         width="4.0065417"
         height="40.078186"
         x="-16.629654"
         y="94.78054"
         ry="0"
         transform="matrix(-0.82013677,0.57216753,0.57202242,0.82023798,0,0)" />
      <rect
         style="display:inline;opacity:1;fill:#b07227;fill-opacity:1;fill-rule:nonzero;stroke:none;stroke-width:7.8681;stroke-linecap:round;stroke-linejoin:round;stroke-dasharray:none;stroke-opacity:1"
         id="rect25"
         width="4.0065417"
         height="40.078186"
         x="72.772659"
         y="52.125851"
         ry="0"
         transform="matrix(0.27757603,0.96070367,0.96075277,-0.27740606,0,0)" />
      <rect
         style="display:inline;opacity:1;fill:#b07227;fill-opacity:1;fill-rule:nonzero;stroke:none;stroke-width:7.8681;stroke-linecap:round;stroke-linejoin:round;stroke-dasharray:none;stroke-opacity:1"
         id="rect26"
         width="4.0065417"
         height="40.078186"
         x="34.180813"
         y="-65.653938"
         ry="0"
         transform="matrix(-0.34395731,0.93898529,-0.93904612,-0.34379118,0,0)" />
      <rect
         style="display:inline;opacity:1;fill:#b07227;fill-opacity:1;fill-rule:nonzero;stroke:none;stroke-width:7.86899;stroke-linecap:round;stroke-linejoin:round;stroke-dasharray:none;stroke-opacity:1"
         id="rect27"
         width="4.0064287"
         height="40.088356"
         x="-64.028786"
         y="-49.07732"
         ry="0"
         transform="matrix(-0.99998029,-0.00627839,0.02751311,-0.99962144,0,0)" />
    </g>
    <circle
       style="display:inline;opacity:1;fill:none;fill-opacity:1;fill-rule:nonzero;stroke:#b07227;stroke-width:7.20775;stroke-linecap:round;stroke-linejoin:round;stroke-dasharray:none;stroke-opacity:1"
       id="path18"
       cx="59.856911"
       cy="60.143089"
       r="7.9462981"
       inkscape:label="centro" />
    <circle
       style="opacity:1;fill:none;fill-opacity:1;fill-rule:nonzero;stroke:#b07227;stroke-width:5.947;stroke-linecap:round;stroke-linejoin:round;stroke-dasharray:none;stroke-opacity:1"
       id="path27"
       cx="60"
       cy="60"
       r="52.24612" />
    <path
       id="path4"
       style="display:inline;opacity:1;fill:#d1882f;fill-opacity:1;stroke:none;stroke-width:1.63368;stroke-linecap:round;stroke-linejoin:round;stroke-dasharray:none;fill-rule:nonzero"
       inkscape:label="Dientes"
       d="M 64.535156 0.26757812 C 63.650685 0.23617014 63.091773 0.27765747 62.998047 0.39648438 C 62.891881 0.53108639 61.952225 2.7276245 60.908203 5.2773438 L 60.039062 7.3984375 A 52.603108 52.603108 0 0 0 60 7.3984375 A 52.603108 52.603108 0 0 0 56.216797 7.6679688 C 55.883294 6.7239588 55.571382 5.842849 55.056641 4.3789062 C 54.306596 2.2457749 53.645647 0.46039032 53.587891 0.41210938 C 53.39419 0.25013966 47.66539 1.3138139 47.486328 1.5449219 C 47.38907 1.6704573 47.046453 3.990474 46.724609 6.7011719 C 46.561132 8.078082 46.500879 8.347827 46.375 9.2675781 A 52.603108 52.603108 0 0 0 42.757812 10.431641 C 42.308969 9.7759915 41.763799 8.9605106 40.980469 7.796875 L 38.535156 4.1640625 L 37.693359 4.3984375 C 37.230359 4.5273068 35.920826 5.0774118 34.783203 5.6230469 L 32.714844 6.6171875 L 32.810547 7.6035156 C 32.863797 8.1471026 33.171572 10.518632 33.494141 12.873047 L 33.726562 14.564453 A 52.603108 52.603108 0 0 0 30.470703 16.5625 L 28.632812 14.943359 C 26.603801 13.155793 24.823415 11.703635 24.675781 11.716797 C 24.337959 11.746937 19.78647 15.420322 19.806641 15.646484 C 19.814841 15.738234 20.747617 17.935602 21.880859 20.529297 L 22.910156 22.886719 A 52.603108 52.603108 0 0 0 20.183594 25.634766 C 17.576619 24.369075 13.581378 22.52169 13.408203 22.537109 C 13.267076 22.549709 12.351958 23.667409 11.376953 25.021484 L 9.6054688 27.482422 L 12.830078 31.566406 C 13.75845 32.742219 13.932737 33.016449 14.525391 33.798828 A 52.603108 52.603108 0 0 0 12.720703 37.103516 L 10.40625 36.671875 C 7.8418098 36.193589 5.6005266 35.814475 5.4257812 35.830078 C 5.2510313 35.845678 4.604688 37.159316 3.9902344 38.748047 L 2.8730469 41.636719 L 3.6796875 42.212891 C 4.1232099 42.530376 6.0245209 43.944116 7.9042969 45.355469 L 9.265625 46.378906 A 52.603108 52.603108 0 0 0 8.4726562 50.027344 L 5.8125 50.265625 L 0.77539062 50.714844 L 0.625 51.609375 C 0.39778701 52.95717 0.03980382 56.979976 0.140625 57.056641 C 0.1892108 57.093581 2.3707564 57.963825 4.9882812 58.992188 L 7.4003906 59.941406 A 52.603108 52.603108 0 0 0 7.3964844 60 A 52.603108 52.603108 0 0 0 7.671875 63.833984 L 5.1484375 64.703125 L 0.35546875 66.353516 L 0.79101562 69.332031 C 1.0307247 70.970303 1.3233462 72.389238 1.4394531 72.486328 C 1.5555702 72.583428 3.8750131 72.932316 6.59375 73.261719 C 7.6184022 73.385867 8.4523017 73.500724 9.2636719 73.611328 A 52.603108 52.603108 0 0 0 10.431641 77.244141 L 8.515625 78.548828 C 6.3840442 80.000472 4.5083253 81.294878 4.3457031 81.423828 C 4.0080911 81.691523 4.3297555 82.628442 5.7910156 85.623047 L 6.6464844 87.373047 L 10.652344 86.845703 C 12.319946 86.626035 13.536487 86.428815 14.556641 86.259766 A 52.603108 52.603108 0 0 0 16.546875 89.507812 L 14.8125 91.496094 L 11.470703 95.330078 L 13.509766 97.820312 L 15.550781 100.30859 L 20.195312 98.28125 C 21.611466 97.66303 22.019905 97.519284 22.939453 97.140625 A 52.603108 52.603108 0 0 0 25.617188 99.802734 L 24.501953 102.14062 L 22.345703 106.66602 L 23.712891 107.7168 C 24.464628 108.29467 25.615391 109.13361 26.271484 109.58008 L 27.464844 110.39062 L 31.488281 107.24805 C 32.365937 106.56279 33.114697 106.00337 33.814453 105.48242 A 52.603108 52.603108 0 0 0 37.119141 107.28711 L 36.712891 109.41016 C 36.254754 111.80381 35.838751 114.01915 35.789062 114.33203 C 35.711362 114.82123 35.916956 114.98748 37.259766 115.52148 C 38.118578 115.86302 39.455027 116.35839 40.228516 116.62109 L 41.634766 117.09766 L 44.726562 112.94727 C 45.366186 112.08897 45.894666 111.40563 46.408203 110.74023 A 52.603108 52.603108 0 0 0 50 111.52148 L 50.240234 114.23047 L 50.691406 119.28906 L 52.736328 119.54297 C 53.860511 119.6829 55.295089 119.76863 55.925781 119.73438 L 57.072266 119.67188 L 59.03125 114.90625 L 59.978516 112.60156 A 52.603108 52.603108 0 0 0 60 112.60352 A 52.603108 52.603108 0 0 0 63.761719 112.33398 C 65.35503 116.82543 66.314744 119.53921 66.322266 119.625 C 66.335636 119.77494 70.611652 119.0972 71.783203 118.75977 L 72.640625 118.51367 L 73.251953 113.4668 C 73.429694 111.9987 73.496372 111.6815 73.628906 110.73242 A 52.603108 52.603108 0 0 0 77.212891 109.58008 C 77.664577 110.23848 78.221311 111.07135 79.017578 112.25195 L 81.464844 115.87891 L 82.306641 115.65039 C 82.769853 115.52388 84.079177 114.97335 85.216797 114.42773 L 87.285156 113.43555 L 87.189453 112.44727 C 87.136203 111.90368 86.828426 109.53214 86.505859 107.17773 L 86.267578 105.43945 A 52.603108 52.603108 0 0 0 89.498047 103.46094 L 91.367188 105.10742 C 93.396196 106.895 95.176581 108.34718 95.324219 108.33398 C 95.662032 108.30388 100.21354 104.63048 100.19336 104.4043 C 100.18536 104.3125 99.252391 102.11519 98.119141 99.521484 L 97.074219 97.128906 A 52.603108 52.603108 0 0 0 99.787109 94.402344 C 102.39085 95.667344 106.41801 97.531141 106.5918 97.515625 C 106.73293 97.503025 107.64706 96.382781 108.62305 95.027344 L 110.39844 92.5625 L 107.17188 88.476562 C 106.23535 87.290424 106.05462 87.00976 105.46094 86.226562 A 52.603108 52.603108 0 0 0 107.26367 82.925781 L 109.60547 83.369141 C 112.16843 83.853206 114.40585 84.236102 114.57812 84.220703 C 114.75038 84.205353 115.3935 82.893006 116.00781 81.302734 L 117.125 78.410156 L 116.14453 77.703125 C 115.60497 77.314546 113.70229 75.904241 111.91797 74.568359 L 110.72266 73.671875 A 52.603108 52.603108 0 0 0 111.51562 70.025391 L 114.1875 69.787109 L 119.22461 69.337891 L 119.375 68.443359 C 119.60222 67.095575 119.96017 63.072779 119.85938 62.996094 C 119.81078 62.959144 117.62924 62.086946 115.01172 61.058594 L 112.5957 60.109375 A 52.603108 52.603108 0 0 0 112.60352 60 A 52.603108 52.603108 0 0 0 112.45117 56.214844 L 114.85156 55.375 L 119.64258 53.699219 L 119.20703 50.720703 C 118.96744 49.082415 118.66853 47.653525 118.54102 47.546875 C 118.41346 47.440215 116.03968 47.077351 113.26562 46.740234 C 112.22541 46.613819 111.46881 46.518437 110.80859 46.429688 A 52.603108 52.603108 0 0 0 109.68359 42.751953 C 110.18779 42.39444 110.71602 42.024865 111.50391 41.488281 C 113.62409 40.044357 115.48737 38.761567 115.64453 38.636719 C 115.96636 38.381022 115.57389 37.242267 114.16211 34.339844 L 113.35547 32.679688 L 109.47266 33.191406 C 107.86296 33.403522 106.6307 33.602502 105.58203 33.773438 A 52.603108 52.603108 0 0 0 103.52148 30.46875 L 105.18945 28.556641 L 108.5293 24.726562 L 106.57227 22.330078 C 105.49645 21.012991 104.44408 19.951797 104.23242 19.970703 C 104.02074 19.989563 101.89335 20.858795 99.503906 21.902344 C 98.330665 22.414741 98.067999 22.499128 97.236328 22.845703 A 52.603108 52.603108 0 0 0 94.398438 20.224609 L 95.505859 17.90625 L 97.662109 13.388672 L 96.292969 12.335938 C 95.538929 11.757328 94.382815 10.918593 93.724609 10.470703 L 92.527344 9.65625 L 88.537109 12.796875 C 87.70801 13.449714 87.010576 13.97349 86.333984 14.480469 A 52.603108 52.603108 0 0 0 82.902344 12.65625 L 83.287109 10.640625 C 83.745239 8.2469648 84.161184 6.0320372 84.210938 5.71875 C 84.290357 5.2187379 84.053175 5.0509868 82.275391 4.3476562 C 81.161484 3.9069735 79.831109 3.4141872 79.318359 3.2519531 L 78.386719 2.9570312 L 75.279297 7.1054688 C 74.664287 7.9265488 74.164934 8.571232 73.664062 9.21875 A 52.603108 52.603108 0 0 0 69.986328 8.359375 L 69.757812 5.8046875 L 69.306641 0.73242188 L 68.027344 0.57617188 C 66.629514 0.40437826 65.419627 0.2989912 64.535156 0.26757812 z M 60 12.064453 A 47.935402 47.935402 0 0 1 107.93555 60 A 47.935402 47.935402 0 0 1 60 107.93555 A 47.935402 47.935402 0 0 1 12.064453 60 A 47.935402 47.935402 0 0 1 60 12.064453 z " />
  </g>
  <circle
     style="opacity:1;fill:none;fill-opacity:1;fill-rule:nonzero;stroke:#d1882f;stroke-width:3.36288;stroke-linecap:round;stroke-linejoin:round;stroke-dasharray:none;stroke-opacity:1"
     id="path28"
     cx="60"
     cy="60"
     r="8.3875532" />
  <circle
     style="opacity:1;fill:none;fill-opacity:1;fill-rule:nonzero;stroke:#ddb266;stroke-width:1.14493;stroke-linecap:round;stroke-linejoin:round;stroke-dasharray:none;stroke-opacity:1"
     id="path29"
     cx="60"
     cy="60"
     r="7.9107909" />
  <circle
     style="opacity:1;fill:none;fill-opacity:1;fill-rule:nonzero;stroke:#ddb266;stroke-width:1.26307;stroke-linecap:round;stroke-linejoin:round;stroke-dasharray:none;stroke-opacity:1"
     id="circle29"
     cx="60"
     cy="60"
     r="49.790462" />
</svg>
