<?xml version="1.0" encoding="UTF-8" standalone="no"?>
<!-- Created with Inkscape (http://www.inkscape.org/) -->

<svg
   width="48"
   height="48"
   viewBox="0 0 12.7 12.7"
   version="1.1"
   id="svg1"
   xmlns="http://www.w3.org/2000/svg"
   xmlns:svg="http://www.w3.org/2000/svg">
  <defs
     id="defs1" />
  <g
     id="layer1">
    <path
       id="path1"
       style="fill:#75abc4;fill-opacity:1;stroke:none;stroke-width:0.709923;stroke-linecap:round;stroke-linejoin:round"
       d="M 3.2246907,0.93664678 0.09872526,6.35 3.2246907,11.763353 H 9.4753093 L 12.601275,6.35 9.4753093,0.93664678 Z M 6.35,3.5278385 A 2.8220195,2.8220195 0 0 1 9.1721615,6.35 2.8220195,2.8220195 0 0 1 6.35,9.1721615 2.8220195,2.8220195 0 0 1 3.5278385,6.35 2.8220195,2.8220195 0 0 1 6.35,3.5278385 Z" />
    <path
       style="opacity:0.665984;fill:#000000;fill-opacity:1;stroke:none;stroke-width:0.0608198;stroke-linecap:round;stroke-linejoin:round"
       d="M 1.6948118,9.0832 C 0.84849401,7.6170528 0.15605215,6.4093499 0.15605215,6.3994157 c 0,-0.00993 0.36044919,-0.018061 0.80099817,-0.018061 0.79195688,0 0.80099808,6.719e-4 0.80099808,0.058329 0,0.1804847 0.4405364,1.1073234 0.9407813,1.9792985 0.4906653,0.8552764 1.0757968,1.7147718 1.2729872,1.8698818 0.1031751,0.08116 0.3113371,0.135376 0.7232249,0.188373 0.4732326,0.06089 2.7115074,0.07004 3.2180454,0.01316 0.412357,-0.04631 0.6662732,-0.105081 0.7728929,-0.1789 C 8.8883402,10.171391 9.417029,9.4236007 9.9246374,8.5595095 10.282256,7.9507445 10.784218,6.9432924 10.880036,6.6419974 l 0.08246,-0.2593056 0.796314,-6.719e-4 c 0.463449,-4.032e-4 0.792398,0.00996 0.786946,0.02476 -0.0052,0.013986 -0.698648,1.2212625 -1.541102,2.682838 l -1.5317333,2.6574101 -3.1196771,9.41e-4 -3.1196771,9.41e-4 z"
       id="path5" />
    <path
       style="opacity:0.665984;fill:#bcd2ea;fill-opacity:1;stroke:none;stroke-width:0.0608198;stroke-linecap:round;stroke-linejoin:round"
       d="M 0.13291248,6.3428118 C 0.13791049,6.321613 0.83707399,5.1011454 1.6866094,3.63066 l 1.54461,-2.67360969 3.120853,5.7785e-4 3.1208533,5.7784e-4 1.5393913,2.6687628 c 0.846665,1.4678196 1.546783,2.6880282 1.555819,2.7115747 0.01448,0.037738 -0.08006,0.042812 -0.79781,0.042812 h -0.814237 l -0.0174,-0.1269101 C 10.915553,6.085619 10.768704,5.7366131 10.48359,5.1728316 9.8281061,3.8766849 8.9179624,2.4868992 8.6374533,2.3537891 8.3744928,2.2290063 7.5850836,2.1621292 6.3673006,2.1614664 5.1197879,2.1607945 4.3257912,2.2273866 4.0671599,2.3543982 3.6183062,2.5748263 1.9275174,5.4510862 1.7453758,6.304066 L 1.7288703,6.381355 H 0.92634888 c -0.66557448,0 -0.8009728,-0.00658 -0.7934364,-0.038542 z"
       id="path6" />
  </g>
</svg>
