<?xml version="1.0" encoding="UTF-8"?>
<!-- Created with Inkscape (http://www.inkscape.org/) -->
<svg width="793.7" height="915.52" inkscape:version="1.4 (86a8ad7, 2024-10-11)" sodipodi:docname="bombillo-apagado.svg" version="1.1" viewBox="0 0 210 242.23" xmlns="http://www.w3.org/2000/svg" xmlns:inkscape="http://www.inkscape.org/namespaces/inkscape" xmlns:sodipodi="http://sodipodi.sourceforge.net/DTD/sodipodi-0.dtd">
 <sodipodi:namedview bordercolor="#111111" borderopacity="1" inkscape:current-layer="layer3" inkscape:cx="301.92562" inkscape:cy="443.89691" inkscape:deskcolor="#3a3a3a" inkscape:document-units="mm" inkscape:pagecheckerboard="1" inkscape:pageopacity="0" inkscape:showpageshadow="0" inkscape:window-height="837" inkscape:window-maximized="1" inkscape:window-width="1440" inkscape:window-x="-8" inkscape:window-y="-8" inkscape:zoom="0.52827581" pagecolor="#282828" showguides="true"/>
 <defs>
  <filter id="filter30" x="-.16698" y="-.10778" width="1.334" height="1.2156" color-interpolation-filters="sRGB" inkscape:collect="always">
   <feGaussianBlur inkscape:collect="always" stdDeviation="4.7847838"/>
  </filter>
 </defs>
 <g inkscape:groupmode="layer" inkscape:label="rosca">
  <rect x="83.641" y="210.58" width="44.575" height="28.673" ry="4.3309" fill="#4d4d4d"/>
  <rect x="88.524" y="210.58" width="32.054" height="28.673" ry="4.3309" fill="#666"/>
  <rect x="95.911" y="211.43" width="10.267" height="27.046" ry="3.6311" fill="#ececec"/>
  <g fill="#4d4d4d" stroke="#4d4d4d" stroke-linecap="round" stroke-linejoin="round" stroke-width="3.7751">
   <path d="m127.47 215.81s-8.249 5.2726-43.085 4.2695" sodipodi:nodetypes="cc"/>
   <path d="m127.47 220.57s-8.249 5.2726-43.085 4.2695" sodipodi:nodetypes="cc"/>
   <path d="m127.47 225.33s-8.249 5.2726-43.085 4.2695" sodipodi:nodetypes="cc"/>
   <path d="m127.47 230.62s-8.249 5.2726-43.085 4.2695" sodipodi:nodetypes="cc"/>
  </g>
  <g fill="#ececec" stroke="#ececec" stroke-linecap="round" stroke-linejoin="round" stroke-width="1.2615">
   <path d="m92.406 219.79s9.1404 0 19.157-0.87648" sodipodi:nodetypes="cc"/>
   <path d="m92.406 224.55s9.1404 0 19.157-0.87648" sodipodi:nodetypes="cc"/>
   <path d="m92.406 229.31s9.1404 0 19.157-0.87648" sodipodi:nodetypes="cc"/>
   <path d="m92.406 234.61s9.1404 0 19.157-0.87648" sodipodi:nodetypes="cc"/>
  </g>
 </g>
 <g inkscape:groupmode="layer" inkscape:label="bombillo">
  <path d="m105 58.243c-28.948 1.6e-4 -52.414 23.467-52.414 52.414 0.0434 18.536 12.241 34.528 19.342 45.063 10.981 16.291 0.49646 55.484 14.274 55.549 13.778 0.0654 29.926-0.027 40.1-0.25043 10.175-0.22338 2.3206-38.879 13.773-55.298 16.255-23.305 17.296-26.528 17.339-45.063 1.3e-4 -28.948-23.467-52.415-52.414-52.414z" fill="none" stroke="#75a8db" stroke-linecap="round" stroke-linejoin="round" stroke-width="1.3" inkscape:label="cristal" sodipodi:nodetypes="ccszzscc"/>
  <path d="m94.204 210.53s-5.0003-68.482-12.395-100.58c-2.8392-12.323-16.589-20.379-12.749 0.35415 1.7707 9.562 19.489 28.866 27.447 0.35415 8.7768-31.449-18.416-15.051-11.333-0.53123 6.8053 13.951 17.353 28.509 27.978 0.70831 12.434-32.536-15.051-17.708-12.041-0.17708 2.5351 14.763 18.062 22.843 25.499-0.17707 8.7759-27.163-13.281-17.53-8.4996-0.17708 4.9077 17.813 22.134 20.187 24.259 0.7083 3.2328-29.634-10.521-5.7686-11.687-0.53123 0 0-17.353 46.925-15.937 99.693" fill="none" stroke="#666" stroke-linecap="round" stroke-linejoin="round" stroke-width="1.2615" inkscape:label="alambre" sodipodi:nodetypes="cssssssssscc"/>
  <g transform="translate(0 3.7041)" stroke="#f2f2f2" stroke-linecap="round" stroke-linejoin="round" stroke-width=".54716" inkscape:label="brillo alambre">
   <path d="m89.165 153.3s1.5607 14.98 2.1197 21.61" fill="none" sodipodi:nodetypes="cc"/>
   <path d="m118.99 153.17s-2.5676 15.494-3.0103 22.666" fill="#f2f2f2"/>
   <g fill="none">
    <path d="m68.262 100.67s-0.26561 7.6142 4.6039 13.9" sodipodi:nodetypes="cc"/>
    <path d="m79.152 99.693s2.9217 3.9842 4.0727 13.989" sodipodi:nodetypes="cc"/>
    <path d="m84.111 99.693s-0.61976 6.3747 3.9842 12.218" sodipodi:nodetypes="cc"/>
    <path d="m98.277 98.631s-1.5937 9.4735-3.3644 13.9"/>
    <path d="m102 98.188s-3.2759 7.2601 1.151 14.697"/>
    <path d="m116.07 97.391s-2.9217 10.979-4.781 14.609" sodipodi:nodetypes="cc"/>
    <path d="m117.84 97.834s-1.4166 6.3747 1.5937 12.838" sodipodi:nodetypes="cc"/>
    <path d="m128.64 98.011s-1.3281 8.7652-3.63 12.926" sodipodi:nodetypes="cc"/>
    <path d="m134.75 98.365s-4.4269 6.9945-5.6664 13.546"/>
    <path d="m142.9 98.896s0.35415 11.421-3.1873 17.176" sodipodi:nodetypes="cc"/>
   </g>
  </g>
  <path transform="matrix(.92702 0 0 .9728 7.6634 7.2692)" d="m105 59.194c-25.621 1.49e-4 -46.392 22.039-46.392 49.226 0.03842 17.408 10.834 32.428 17.119 42.322 9.7195 15.3 0.43942 52.109 12.634 52.17 12.195 0.0614 26.487-0.0254 35.493-0.2352 9.0056-0.20979 2.054-36.514 12.191-51.935 14.388-21.887 15.308-24.914 15.347-42.322 1.1e-4 -27.187-20.77-49.226-46.392-49.226z" fill="none" filter="url(#filter30)" opacity=".76434" stroke="#bcd9e8" stroke-linecap="round" stroke-linejoin="round" stroke-width="8.0183" style="mix-blend-mode:normal" inkscape:label="reflejo" sodipodi:nodetypes="ccszzscc"/>
  <g transform="translate(0 3.7041)" fill="#fff" inkscape:label="brillo cristal">
   <path d="m140.49 73.874c-7.1196-7.5248-35.833-17.14-18.281-3.5059 13.121 10.193 13.272 11.269 19.282 18.281 11.754 13.713 11.127-1.9562-1.0017-14.775z" opacity=".4" inkscape:label="brillo 1" sodipodi:nodetypes="ssss"/>
   <path d="m70.986 73.874c7.1196-7.5248 35.833-17.14 18.281-3.5059-13.121 10.193-13.272 11.269-19.282 18.281-11.754 13.713-11.127-1.9562 1.0017-14.775z" opacity=".4" inkscape:label="brillo 2" sodipodi:nodetypes="ssss"/>
   <path d="m79.384 160.52s2.5042 15.025 1.753 22.788c-0.75126 7.7631 4.2572 5.0084 5.0084-11.019 0.75126-16.027-10.267-21.035-6.7614-11.77z" opacity=".4" inkscape:label="brillo 3"/>
   <path d="m132.97 158.7s-3.7414 14.766-3.6364 22.565c0.10502 7.7986-4.6578 4.6382-4.0776-11.396 0.58018-16.034 11.976-20.112 7.714-11.169z" opacity=".4" inkscape:label="brillo 4"/>
  </g>
 </g>
 <g inkscape:groupmode="layer" inkscape:label="socrates">
  <rect x="76.246" y="225.39" width="57.508" height="15.224" ry="2.7874" fill="#1c3259"/>
  <rect x="83.683" y="225.39" width="40.155" height="15.224" ry="2.7874" fill="#1f55ad"/>
  <rect transform="matrix(.9999 .013819 0 1 0 0)" x="93.962" y="223.99" width="15.012" height="15.224" ry="2.7874" fill="#77a2e9"/>
 </g>
</svg>
