<?xml version="1.0" encoding="UTF-8" standalone="no"?>
<!-- Created with Inkscape (http://www.inkscape.org/) -->

<svg
   width="120"
   height="120"
   viewBox="0 0 120 120"
   version="1.1"
   id="svg1"
   xmlns="http://www.w3.org/2000/svg"
   xmlns:svg="http://www.w3.org/2000/svg">
  <defs
     id="defs1" />
  <g
     id="layer1"
     style="stroke:#b07227;stroke-opacity:1">
    <g
       id="g46">
      <path
         d="m 3.0107803,57.411424 11.9339517,4.377264 a 45.18837,45.18837 0 0 1 0.11844,-6.545816 45.18837,45.18837 0 0 1 1.272081,-6.517748 L 3.7550373,50.476838 a 57.215483,57.215483 0 0 0 -0.6526554,3.499876 57.215483,57.215483 0 0 0 -0.091602,3.43471 z"
         style="display:inline;fill:#d1882f;fill-opacity:1;stroke:#d1882f;stroke-width:3.88281;stroke-linecap:round;stroke-dasharray:none;stroke-opacity:1"
         id="path17" />
      <path
         d="M 9.3269051,86.258089 21.873898,84.075802 A 45.18837,45.18837 0 0 1 16.548549,72.067993 L 6.4194217,79.961358 a 57.215483,57.215483 0 0 0 2.9074834,6.296731 z"
         style="display:inline;fill:#d1882f;fill-opacity:1;stroke:#d1882f;stroke-width:3.88281;stroke-linecap:round;stroke-dasharray:none;stroke-opacity:1"
         id="path16" />
      <path
         d="m 29.154897,108.15414 9.865759,-8.238993 A 45.18837,45.18837 0 0 1 28.403369,92.17693 l -4.785245,11.80179 a 57.215483,57.215483 0 0 0 5.536773,4.17542 z"
         style="display:inline;fill:#d1882f;fill-opacity:1;stroke:#d1882f;stroke-width:3.88281;stroke-linecap:round;stroke-dasharray:none;stroke-opacity:1"
         id="path15" />
      <path
         d="m 57.411901,116.98946 4.377264,-11.93396 a 45.18837,45.18837 0 0 1 -6.545815,-0.11844 45.18837,45.18837 0 0 1 -6.517747,-1.27208 l 1.751714,12.58021 a 57.215483,57.215483 0 0 0 3.499875,0.65266 57.215483,57.215483 0 0 0 3.434709,0.0916 z"
         style="display:inline;fill:#d1882f;fill-opacity:1;stroke:#d1882f;stroke-width:3.88281;stroke-linecap:round;stroke-dasharray:none;stroke-opacity:1"
         id="path14" />
      <path
         d="M 86.258567,110.67333 84.076281,98.126332 a 45.18837,45.18837 0 0 1 -12.00781,5.325348 l 7.893366,10.12913 a 57.215483,57.215483 0 0 0 6.29673,-2.90748 z"
         style="display:inline;fill:#d1882f;fill-opacity:1;stroke:#d1882f;stroke-width:3.88281;stroke-linecap:round;stroke-dasharray:none;stroke-opacity:1"
         id="path13" />
      <path
         d="M 108.15462,90.845335 99.915622,80.979576 A 45.18837,45.18837 0 0 1 92.177408,91.596863 L 103.9792,96.38211 a 57.215483,57.215483 0 0 0 4.17542,-5.536775 z"
         style="display:inline;fill:#d1882f;fill-opacity:1;stroke:#d1882f;stroke-width:3.88281;stroke-linecap:round;stroke-dasharray:none;stroke-opacity:1"
         id="path12" />
      <path
         d="M 117.14907,62.645849 105.1343,58.239692 a 45.18837,45.18837 0 0 1 -0.19677,6.51719 45.18837,45.18837 0 0 1 -1.27207,6.517748 l 12.58021,-1.751715 a 57.215483,57.215483 0 0 0 0.65265,-3.499876 57.215483,57.215483 0 0 0 0.25075,-3.37719 z"
         style="display:inline;fill:#d1882f;fill-opacity:1;stroke:#d1882f;stroke-width:3.88281;stroke-linecap:round;stroke-dasharray:none;stroke-opacity:1"
         id="path11" />
      <path
         d="m 110.80573,33.720042 -12.580467,2.186369 a 45.18837,45.18837 0 0 1 5.293087,11.976435 l 10.07657,-7.853176 a 57.215483,57.215483 0 0 0 -2.78919,-6.309628 z"
         style="display:inline;fill:#d1882f;fill-opacity:1;stroke:#d1882f;stroke-width:3.88281;stroke-linecap:round;stroke-dasharray:none;stroke-opacity:1"
         id="path10" />
      <path
         d="m 81.046772,20.030665 a 45.18837,45.18837 0 0 1 10.585021,7.706837 l 4.799294,-11.838435 a 57.215483,57.215483 0 0 0 -5.5772,-4.057683 z"
         style="display:inline;fill:#d1882f;fill-opacity:1;stroke:#d1882f;stroke-width:3.88281;stroke-linecap:round;stroke-dasharray:none;stroke-opacity:1"
         id="path9" />
      <path
         d="M 69.500469,3.5869027 A 57.215483,57.215483 0 0 0 66.023518,3.1019039 57.215483,57.215483 0 0 0 62.588808,3.0103023 L 58.211544,14.944253 a 45.18837,45.18837 0 0 1 6.545816,0.118442 45.18837,45.18837 0 0 1 6.508134,1.194802 z"
         style="display:inline;fill:#d1882f;fill-opacity:1;stroke:#d1882f;stroke-width:3.88281;stroke-linecap:round;stroke-dasharray:none;stroke-opacity:1"
         id="path8" />
      <path
         d="M 33.742143,9.3264274 35.92443,21.873421 A 45.18837,45.18837 0 0 1 47.932239,16.548072 L 40.038872,6.4189435 a 57.215483,57.215483 0 0 0 -6.296729,2.9074839 z"
         style="display:inline;fill:#d1882f;fill-opacity:1;stroke:#d1882f;stroke-width:3.88281;stroke-linecap:round;stroke-dasharray:none;stroke-opacity:1"
         id="path7" />
      <path
         d="m 11.846091,29.154419 8.238998,9.86576 A 45.18837,45.18837 0 0 1 27.823302,28.40289 L 16.02151,23.617645 a 57.215483,57.215483 0 0 0 -4.175419,5.536774 z"
         style="display:inline;fill:#d1882f;fill-opacity:1;stroke:#d1882f;stroke-width:3.88281;stroke-linecap:round;stroke-dasharray:none;stroke-opacity:1"
         id="path6" />
      <path
         id="path30"
         style="display:inline;fill:none;stroke-width:4.91953;stroke-linecap:round;stroke-linejoin:round"
         d="m 69.488305,61.004262 c -0.554706,5.240051 -5.252285,9.038272 -10.492335,8.483566 -5.240051,-0.554707 -9.038271,-5.252285 -8.483565,-10.492336 0.554707,-5.24005 5.252284,-9.038272 10.492335,-8.483565 5.24005,0.554706 9.038272,5.252285 8.483565,10.492335 z m 33.472935,3.543412 C 100.44957,88.27432 79.179203,105.47245 55.452557,102.96077 31.725912,100.44909 14.527785,79.178725 17.039464,55.45208 19.551143,31.725434 40.821507,14.527307 64.548152,17.038986 88.274798,19.550665 105.47292,40.821029 102.96124,64.547674 Z m -32.491672,-5.506606 -0.475503,-2.158699 30.183295,-6.648566 0.4755,2.158699 z m -6.246542,10.568656 1.912687,-1.108021 15.492532,26.74352 -1.912688,1.108022 z M 33.152682,91.453336 31.50914,89.975209 52.17657,66.994954 l 1.643541,1.478127 z m 30.092434,-72.604041 2.198167,0.232696 -3.253592,30.735142 -2.198166,-0.232696 1.742791,-16.46333 z m -41.416425,25.233147 0.912296,-2.013406 28.151776,12.755873 -0.912295,2.013405 z" />
      <circle
         style="display:inline;opacity:1;fill:none;fill-opacity:1;stroke:#ddb266;stroke-width:2.164;stroke-linecap:round;stroke-linejoin:round;stroke-dasharray:none;stroke-opacity:1"
         id="path46"
         cx="65.983208"
         cy="53.350208"
         r="7.9590468"
         transform="rotate(6.0427694)" />
      <circle
         style="display:inline;opacity:1;fill:none;fill-opacity:1;stroke:#ddb266;stroke-width:4.277;stroke-linecap:round;stroke-linejoin:round;stroke-dasharray:none;stroke-opacity:1"
         id="circle46"
         cx="65.983208"
         cy="53.350208"
         r="40.133495"
         transform="rotate(6.0427694)" />
    </g>
  </g>
</svg>
